<?xml version="1.0" encoding="utf-8"?>
<!-- Generator: Adobe Illustrator 22.1.0, SVG Export Plug-In . SVG Version: 6.00 Build 0)  -->
<svg version="1.1" id="Layer_1" xmlns="http://www.w3.org/2000/svg" xmlns:xlink="http://www.w3.org/1999/xlink" x="0px" y="0px"
	 viewBox="0 0 529 528.7" style="enable-background:new 0 0 529 528.7;" xml:space="preserve">
<style type="text/css">
	.st0{fill:none;stroke:#231F20;stroke-width:17;stroke-miterlimit:10;}
	.st1{fill:#231F20;}
</style>
<circle class="st0" cx="264.1" cy="264" r="254.5"/>
<circle class="st0" cx="373.6" cy="237.4" r="64.2"/>
<path class="st0" d="M392.9,348.6c9.6,0,16.8,8.9,14.7,18.3c-11.5,51.8-71.1,91.2-142.9,91.2s-131.4-39.4-142.9-91.2
	c-2.1-9.4,5-18.3,14.7-18.3L392.9,348.6L392.9,348.6z"/>
<circle class="st0" cx="154.6" cy="237.4" r="64.2"/>
<path class="st1" d="M365.7,123H162.5c-4.7,0-8.5,3.8-8.5,8.5v0c0,4.7,3.8,8.5,8.5,8.5h84.6c4.7,0,8.5,3.8,8.5,8.5v123.3
	c0,4.7,3.8,8.5,8.5,8.5h0c4.7,0,8.5-3.8,8.5-8.5V148.5c0-4.7,3.8-8.5,8.5-8.5h84.6c4.7,0,8.5-3.8,8.5-8.5v0
	C374.2,126.8,370.4,123,365.7,123z"/>
<path class="st1" d="M166.7,237.4L206,198c3.3-3.3,3.3-8.7,0-12c-3.3-3.3-8.7-3.3-12,0l-39.4,39.4L115.2,186c-3.3-3.3-8.7-3.3-12,0
	c-3.3,3.3-3.3,8.7,0,12l39.4,39.4l-39.4,39.4c-3.3,3.3-3.3,8.7,0,12c1.7,1.7,3.8,2.5,6,2.5c2.2,0,4.4-0.8,6-2.5l39.4-39.4l39.4,39.4
	c1.7,1.7,3.8,2.5,6,2.5s4.4-0.8,6-2.5c3.3-3.3,3.3-8.7,0-12L166.7,237.4z"/>
<path class="st1" d="M386.3,237.4l39.4-39.4c3.3-3.3,3.3-8.7,0-12c-3.3-3.3-8.7-3.3-12,0l-39.4,39.4L334.8,186
	c-3.3-3.3-8.7-3.3-12,0c-3.3,3.3-3.3,8.7,0,12l39.4,39.4l-39.4,39.4c-3.3,3.3-3.3,8.7,0,12c1.7,1.7,3.8,2.5,6,2.5
	c2.2,0,4.4-0.8,6-2.5l39.4-39.4l39.4,39.4c1.7,1.7,3.8,2.5,6,2.5s4.4-0.8,6-2.5c3.3-3.3,3.3-8.7,0-12L386.3,237.4z"/>
</svg>
